<svg width="32" height="29" viewBox="0 0 32 29" fill="none" xmlns="http://www.w3.org/2000/svg">
<mask id="path-2-inside-1" fill="white">
<path d="M21.597 18.2563C21.0214 17.9762 20.3198 18.0514 19.8471 18.4021L19.1292 18.0525V16.3253C19.1292 16.1465 19.0154 15.9803 18.8312 15.8915L16.9892 15V14.236C17.5879 14.0652 18.0186 13.5893 18.0186 13.028C18.0186 12.3232 17.34 11.7527 16.5016 11.7527C15.6632 11.7527 14.9846 12.3232 14.9846 13.028C14.9846 13.5893 15.4153 14.0652 16.014 14.236V15L14.1719 15.8915C13.9877 15.9803 13.874 16.1465 13.874 16.3253V18.0514L13.1561 18.4009C12.6834 18.0503 11.9804 17.9751 11.4061 18.2552C10.6815 18.6082 10.435 19.3869 10.8508 19.9961C11.268 20.6052 12.1904 20.8147 12.9123 20.4629C13.4879 20.1828 13.7615 19.6317 13.6383 19.1103L14.2979 18.7881L16.2023 19.7103C16.2944 19.7547 16.3973 19.7775 16.5002 19.7775C16.6032 19.7775 16.7061 19.7547 16.7982 19.7103L18.7012 18.7892L19.3608 19.1114C19.2376 19.6317 19.5125 20.184 20.0868 20.464C20.8087 20.8159 21.7325 20.6075 22.1483 19.9972C22.5655 19.3869 22.3189 18.6082 21.597 18.2563ZM12.4816 19.8321C12.408 19.868 12.3267 19.8912 12.2425 19.9005C12.1582 19.9098 12.0725 19.905 11.9904 19.8864C11.9084 19.8678 11.8315 19.8357 11.7642 19.792C11.6969 19.7483 11.6406 19.6938 11.5985 19.6317C11.4197 19.371 11.5253 19.0363 11.8355 18.886C11.9091 18.8502 11.9903 18.8269 12.0746 18.8176C12.1589 18.8083 12.2446 18.8131 12.3267 18.8317C12.4087 18.8503 12.4856 18.8824 12.5529 18.9261C12.6202 18.9698 12.6765 19.0243 12.7186 19.0864C12.8974 19.3471 12.7917 19.6818 12.4816 19.8321ZM15.8501 13.028C15.8536 12.8849 15.9236 12.7488 16.0451 12.6487C16.1667 12.5486 16.3301 12.4925 16.5002 12.4925C16.6704 12.4925 16.8338 12.5486 16.9553 12.6487C17.0769 12.7488 17.1469 12.8849 17.1504 13.028C17.1469 13.171 17.0769 13.3071 16.9553 13.4073C16.8338 13.5074 16.6704 13.5634 16.5002 13.5634C16.3301 13.5634 16.1667 13.5074 16.0451 13.4073C15.9236 13.3071 15.8536 13.171 15.8501 13.028ZM18.1527 18.1083L16.5002 18.9087L14.8478 18.1083V16.5097L16.5002 15.7093L18.1527 16.5097V18.1083ZM21.402 19.6329C21.2232 19.8936 20.8277 19.9836 20.5189 19.8333C20.2101 19.683 20.1031 19.3482 20.2819 19.0875C20.4606 18.8268 20.8561 18.7368 21.165 18.8871C21.4751 19.0374 21.5808 19.371 21.402 19.6329Z"/>
</mask>
<path d="M21.597 18.2563C21.0214 17.9762 20.3198 18.0514 19.8471 18.4021L19.1292 18.0525V16.3253C19.1292 16.1465 19.0154 15.9803 18.8312 15.8915L16.9892 15V14.236C17.5879 14.0652 18.0186 13.5893 18.0186 13.028C18.0186 12.3232 17.34 11.7527 16.5016 11.7527C15.6632 11.7527 14.9846 12.3232 14.9846 13.028C14.9846 13.5893 15.4153 14.0652 16.014 14.236V15L14.1719 15.8915C13.9877 15.9803 13.874 16.1465 13.874 16.3253V18.0514L13.1561 18.4009C12.6834 18.0503 11.9804 17.9751 11.4061 18.2552C10.6815 18.6082 10.435 19.3869 10.8508 19.9961C11.268 20.6052 12.1904 20.8147 12.9123 20.4629C13.4879 20.1828 13.7615 19.6317 13.6383 19.1103L14.2979 18.7881L16.2023 19.7103C16.2944 19.7547 16.3973 19.7775 16.5002 19.7775C16.6032 19.7775 16.7061 19.7547 16.7982 19.7103L18.7012 18.7892L19.3608 19.1114C19.2376 19.6317 19.5125 20.184 20.0868 20.464C20.8087 20.8159 21.7325 20.6075 22.1483 19.9972C22.5655 19.3869 22.3189 18.6082 21.597 18.2563ZM12.4816 19.8321C12.408 19.868 12.3267 19.8912 12.2425 19.9005C12.1582 19.9098 12.0725 19.905 11.9904 19.8864C11.9084 19.8678 11.8315 19.8357 11.7642 19.792C11.6969 19.7483 11.6406 19.6938 11.5985 19.6317C11.4197 19.371 11.5253 19.0363 11.8355 18.886C11.9091 18.8502 11.9903 18.8269 12.0746 18.8176C12.1589 18.8083 12.2446 18.8131 12.3267 18.8317C12.4087 18.8503 12.4856 18.8824 12.5529 18.9261C12.6202 18.9698 12.6765 19.0243 12.7186 19.0864C12.8974 19.3471 12.7917 19.6818 12.4816 19.8321ZM15.8501 13.028C15.8536 12.8849 15.9236 12.7488 16.0451 12.6487C16.1667 12.5486 16.3301 12.4925 16.5002 12.4925C16.6704 12.4925 16.8338 12.5486 16.9553 12.6487C17.0769 12.7488 17.1469 12.8849 17.1504 13.028C17.1469 13.171 17.0769 13.3071 16.9553 13.4073C16.8338 13.5074 16.6704 13.5634 16.5002 13.5634C16.3301 13.5634 16.1667 13.5074 16.0451 13.4073C15.9236 13.3071 15.8536 13.171 15.8501 13.028ZM18.1527 18.1083L16.5002 18.9087L14.8478 18.1083V16.5097L16.5002 15.7093L18.1527 16.5097V18.1083ZM21.402 19.6329C21.2232 19.8936 20.8277 19.9836 20.5189 19.8333C20.2101 19.683 20.1031 19.3482 20.2819 19.0875C20.4606 18.8268 20.8561 18.7368 21.165 18.8871C21.4751 19.0374 21.5808 19.371 21.402 19.6329Z" fill="white"/>
<path d="M19.8471 18.4021L18.9715 20.2002L20.0634 20.7319L21.0387 20.0083L19.8471 18.4021ZM19.1292 18.0525H17.1292V19.3032L18.2536 19.8507L19.1292 18.0525ZM18.8312 15.8915L17.96 17.6917L17.9627 17.693L18.8312 15.8915ZM16.9892 15H14.9892V16.254L16.1179 16.8002L16.9892 15ZM16.9892 14.236L16.4405 12.3127L14.9892 12.7268V14.236H16.9892ZM16.014 14.236H18.014V12.7268L16.5627 12.3127L16.014 14.236ZM16.014 15L16.8853 16.8002L18.014 16.254V15H16.014ZM14.1719 15.8915L15.0405 17.693L15.0432 17.6917L14.1719 15.8915ZM13.874 18.0514L14.7495 19.8495L15.874 19.302V18.0514H13.874ZM13.1561 18.4009L11.9645 20.0072L12.9398 20.7308L14.0317 20.1991L13.1561 18.4009ZM11.4061 18.2552L12.282 20.0532L12.2829 20.0528L11.4061 18.2552ZM10.8508 19.9961L9.19899 21.1237L9.2007 21.1262L10.8508 19.9961ZM12.9123 20.4629L12.0372 18.6645L12.0361 18.665L12.9123 20.4629ZM13.6383 19.1103L12.7604 17.3132L11.3242 18.0148L11.6919 19.5703L13.6383 19.1103ZM14.2979 18.7881L15.1696 16.988L14.2941 16.564L13.4201 16.991L14.2979 18.7881ZM16.2023 19.7103L15.3305 21.5103L15.3337 21.5119L16.2023 19.7103ZM16.7982 19.7103L17.6668 21.5119L17.6696 21.5105L16.7982 19.7103ZM18.7012 18.7892L19.5791 16.9921L18.7052 16.5653L17.8299 16.989L18.7012 18.7892ZM19.3608 19.1114L21.307 19.5724L21.6756 18.0163L20.2387 17.3144L19.3608 19.1114ZM20.0868 20.464L19.2101 22.2616L19.2106 22.2619L20.0868 20.464ZM22.1483 19.9972L20.4972 18.8686L20.4955 18.8711L22.1483 19.9972ZM12.4816 19.8321L11.6095 18.0323L11.6061 18.0339L12.4816 19.8321ZM11.7642 19.792L12.8538 18.1148L11.7642 19.792ZM11.5985 19.6317L13.2533 18.5085L13.2479 18.5007L11.5985 19.6317ZM11.8355 18.886L12.7076 20.6858L12.711 20.6842L11.8355 18.886ZM12.7186 19.0864L11.0638 20.2096L11.0691 20.2174L12.7186 19.0864ZM16.5002 12.4925V10.4925V12.4925ZM17.1504 13.028L19.1498 13.0765L19.151 13.028L19.1498 12.9794L17.1504 13.028ZM16.5002 18.9087L15.6284 20.7087L16.5002 21.131L17.3721 20.7087L16.5002 18.9087ZM14.8478 18.1083H12.8478V19.3618L13.9759 19.9083L14.8478 18.1083ZM14.8478 16.5097L13.9759 14.7098L12.8478 15.2562V16.5097H14.8478ZM16.5002 15.7093L17.3721 13.9094L16.5002 13.487L15.6284 13.9094L16.5002 15.7093ZM18.1527 16.5097H20.1527V15.2562L19.0245 14.7098L18.1527 16.5097ZM21.402 19.6329L23.0515 20.7639L23.0537 20.7606L21.402 19.6329ZM20.5189 19.8333L19.6437 21.6316L20.5189 19.8333ZM21.165 18.8871L20.2897 20.6854L20.2928 20.6869L21.165 18.8871ZM22.4721 16.4579C21.2337 15.8553 19.7344 15.9954 18.6555 16.7958L21.0387 20.0083C20.9547 20.0706 20.8908 20.0821 20.8629 20.0846C20.8318 20.0874 20.7833 20.0846 20.722 20.0547L22.4721 16.4579ZM20.7227 16.6039L20.0048 16.2544L18.2536 19.8507L18.9715 20.2002L20.7227 16.6039ZM21.1292 18.0525V16.3253H17.1292V18.0525H21.1292ZM21.1292 16.3253C21.1292 15.2548 20.4568 14.4549 19.6998 14.0899L17.9627 17.693C17.5741 17.5057 17.1292 17.0383 17.1292 16.3253H21.1292ZM19.7025 14.0913L17.8605 13.1997L16.1179 16.8002L17.96 17.6917L19.7025 14.0913ZM18.9892 15V14.236H14.9892V15H18.9892ZM17.5379 16.1593C18.7679 15.8084 20.0186 14.6989 20.0186 13.028H16.0186C16.0186 12.7768 16.1192 12.5814 16.2173 12.4682C16.3092 12.3622 16.3968 12.3252 16.4405 12.3127L17.5379 16.1593ZM20.0186 13.028C20.0186 10.9073 18.1052 9.75275 16.5016 9.75275V13.7527C16.4733 13.7527 16.391 13.744 16.2875 13.657C16.1796 13.5663 16.0186 13.3515 16.0186 13.028H20.0186ZM16.5016 9.75275C14.898 9.75275 12.9846 10.9073 12.9846 13.028H16.9846C16.9846 13.3515 16.8236 13.5663 16.7156 13.657C16.6122 13.744 16.5298 13.7527 16.5016 13.7527V9.75275ZM12.9846 13.028C12.9846 14.6989 14.2353 15.8084 15.4653 16.1593L16.5627 12.3127C16.6064 12.3252 16.6939 12.3622 16.7859 12.4682C16.884 12.5814 16.9846 12.7768 16.9846 13.028H12.9846ZM14.014 14.236V15H18.014V14.236H14.014ZM15.1427 13.1997L13.3007 14.0913L15.0432 17.6917L16.8853 16.8002L15.1427 13.1997ZM13.3034 14.0899C12.5464 14.4549 11.874 15.2548 11.874 16.3253H15.874C15.874 17.0383 15.4291 17.5057 15.0405 17.693L13.3034 14.0899ZM11.874 16.3253V18.0514H15.874V16.3253H11.874ZM12.9984 16.2532L12.2805 16.6028L14.0317 20.1991L14.7495 19.8495L12.9984 16.2532ZM14.3477 16.7947C13.2692 15.9946 11.768 15.8535 10.5294 16.4576L12.2829 20.0528C12.2194 20.0837 12.1702 20.0862 12.1398 20.0835C12.1127 20.081 12.049 20.0699 11.9645 20.0072L14.3477 16.7947ZM10.5303 16.4572C8.89146 17.2554 7.98541 19.3459 9.19899 21.1237L12.5027 18.8685C12.6417 19.0722 12.693 19.3648 12.6066 19.6361C12.5253 19.8917 12.3631 20.0137 12.282 20.0532L10.5303 16.4572ZM9.2007 21.1262C10.2473 22.6544 12.2901 22.991 13.7885 22.2608L12.0361 18.665C12.1125 18.6278 12.1698 18.6304 12.2094 18.6393C12.2451 18.6474 12.38 18.6893 12.5009 18.866L9.2007 21.1262ZM13.7874 22.2613C15.0767 21.6339 15.9542 20.2139 15.5847 18.6502L11.6919 19.5703C11.6379 19.3417 11.6772 19.1177 11.7666 18.9473C11.8547 18.7795 11.9711 18.6967 12.0372 18.6645L13.7874 22.2613ZM14.5161 20.9073L15.1757 20.5851L13.4201 16.991L12.7604 17.3132L14.5161 20.9073ZM13.4262 20.5881L15.3305 21.5103L17.074 17.9103L15.1696 16.988L13.4262 20.5881ZM15.3337 21.5119C15.7063 21.6915 16.1074 21.7775 16.5002 21.7775V17.7775C16.6872 17.7775 16.8824 17.8179 17.0708 17.9088L15.3337 21.5119ZM16.5002 21.7775C16.8931 21.7775 17.2942 21.6915 17.6668 21.5119L15.9296 17.9088C16.118 17.8179 16.3132 17.7775 16.5002 17.7775V21.7775ZM17.6696 21.5105L19.5726 20.5894L17.8299 16.989L15.9269 17.9101L17.6696 21.5105ZM17.8234 20.5862L18.483 20.9085L20.2387 17.3144L19.5791 16.9921L17.8234 20.5862ZM17.4147 18.6504C17.0439 20.2157 17.9259 21.6353 19.2101 22.2616L20.9635 18.6664C21.0306 18.6992 21.1456 18.7817 21.2327 18.9475C21.3211 19.1157 21.362 19.3401 21.307 19.5724L17.4147 18.6504ZM19.2106 22.2619C20.7051 22.9902 22.7538 22.6604 23.8011 21.1234L20.4955 18.8711C20.6179 18.6914 20.7553 18.6488 20.7911 18.6407C20.8308 18.6317 20.8874 18.6293 20.963 18.6662L19.2106 22.2619ZM23.7994 21.1259C25.013 19.3505 24.1135 17.2579 22.4732 16.4585L20.7209 20.0542C20.6368 20.0132 20.4741 19.8894 20.3931 19.6336C20.3071 19.362 20.3591 19.0705 20.4972 18.8686L23.7994 21.1259ZM11.6061 18.0339C11.7461 17.9658 11.8877 17.9275 12.0229 17.9126L12.462 21.8884C12.7658 21.8548 13.0699 21.7701 13.3571 21.6303L11.6061 18.0339ZM12.0229 17.9126C12.1581 17.8976 12.2963 17.905 12.433 17.936L11.5479 21.8368C11.8487 21.9051 12.1582 21.922 12.462 21.8884L12.0229 17.9126ZM12.433 17.936C12.5696 17.967 12.7136 18.0237 12.8538 18.1148L10.6746 21.4691C10.9493 21.6476 11.2471 21.7686 11.5479 21.8368L12.433 17.936ZM12.8538 18.1148C12.9943 18.2061 13.1356 18.3352 13.2533 18.5085L9.94368 20.755C10.1456 21.0524 10.3996 21.2904 10.6746 21.4691L12.8538 18.1148ZM13.2479 18.5007C13.5077 18.8795 13.5831 19.3711 13.4401 19.822C13.3018 20.2579 13.0002 20.544 12.7076 20.6858L10.9634 17.0861C9.73178 17.6829 8.96998 19.335 9.94901 20.7628L13.2479 18.5007ZM12.711 20.6842C12.571 20.7524 12.4294 20.7906 12.2942 20.8055L11.855 16.8297C11.5513 16.8633 11.2472 16.948 10.96 17.0878L12.711 20.6842ZM12.2942 20.8055C12.159 20.8205 12.0208 20.8131 11.8841 20.7821L12.7692 16.8813C12.4684 16.813 12.1589 16.7961 11.855 16.8297L12.2942 20.8055ZM11.8841 20.7821C11.7475 20.7511 11.6035 20.6944 11.4633 20.6033L13.6425 17.249C13.3677 17.0705 13.07 16.9495 12.7692 16.8813L11.8841 20.7821ZM11.4633 20.6033C11.3228 20.512 11.1815 20.3829 11.0638 20.2096L14.3734 17.9631C14.1715 17.6657 13.9175 17.4277 13.6425 17.249L11.4633 20.6033ZM11.0691 20.2174C10.8094 19.8386 10.734 19.347 10.877 18.8961C11.0153 18.4602 11.3169 18.1741 11.6095 18.0323L13.3537 21.632C14.5853 21.0352 15.3471 19.3831 14.3681 17.9553L11.0691 20.2174ZM17.8495 13.0765C17.8374 13.5766 17.5925 13.9653 17.3167 14.1924L14.7736 11.1049C14.2547 11.5323 13.8698 12.1933 13.8507 12.9794L17.8495 13.0765ZM17.3167 14.1924C17.0503 14.4118 16.7538 14.4925 16.5002 14.4925V10.4925C15.9063 10.4925 15.2831 10.6853 14.7736 11.1049L17.3167 14.1924ZM16.5002 14.4925C16.2466 14.4925 15.9502 14.4118 15.6838 14.1924L18.2268 11.1049C17.7174 10.6853 17.0942 10.4925 16.5002 10.4925V14.4925ZM15.6838 14.1924C15.408 13.9653 15.1631 13.5766 15.151 13.0765L19.1498 12.9794C19.1307 12.1933 18.7458 11.5323 18.2268 11.1049L15.6838 14.1924ZM15.151 12.9794C15.1631 12.4793 15.408 12.0907 15.6838 11.8635L18.2268 14.951C18.7458 14.5236 19.1307 13.8627 19.1498 13.0765L15.151 12.9794ZM15.6838 11.8635C15.9502 11.6441 16.2466 11.5634 16.5002 11.5634V15.5634C17.0942 15.5634 17.7174 15.3706 18.2268 14.951L15.6838 11.8635ZM16.5002 11.5634C16.7538 11.5634 17.0503 11.6441 17.3167 11.8635L14.7736 14.951C15.2831 15.3706 15.9063 15.5634 16.5002 15.5634V11.5634ZM17.3167 11.8635C17.5925 12.0907 17.8374 12.4793 17.8495 12.9794L13.8507 13.0765C13.8698 13.8627 14.2547 14.5236 14.7736 14.951L17.3167 11.8635ZM17.2808 16.3084L15.6284 17.1088L17.3721 20.7087L19.0245 19.9083L17.2808 16.3084ZM17.3721 17.1088L15.7197 16.3084L13.9759 19.9083L15.6284 20.7087L17.3721 17.1088ZM16.8478 18.1083V16.5097H12.8478V18.1083H16.8478ZM15.7197 18.3097L17.3721 17.5093L15.6284 13.9094L13.9759 14.7098L15.7197 18.3097ZM15.6284 17.5093L17.2808 18.3097L19.0245 14.7098L17.3721 13.9094L15.6284 17.5093ZM16.1527 16.5097V18.1083H20.1527V16.5097H16.1527ZM19.7525 18.5018C19.9929 18.1513 20.3188 17.9931 20.5663 17.9369C20.8178 17.8798 21.1102 17.8968 21.3941 18.0349L19.6437 21.6316C20.7298 22.1602 22.244 21.9415 23.0515 20.7639L19.7525 18.5018ZM21.3941 18.0349C21.6861 18.1771 21.9854 18.4622 22.1233 18.895C22.2662 19.344 22.193 19.8369 21.9313 20.2185L18.6324 17.9565C17.6498 19.3894 18.4229 21.0375 19.6437 21.6316L21.3941 18.0349ZM21.9313 20.2185C21.6909 20.5691 21.3651 20.7273 21.1175 20.7835C20.866 20.8406 20.5736 20.8236 20.2898 20.6854L22.0402 17.0888C20.954 16.5602 19.4398 16.7789 18.6324 17.9565L21.9313 20.2185ZM20.2928 20.6869C20.0022 20.5461 19.6995 20.2607 19.5606 19.8233C19.4168 19.3704 19.494 18.8805 19.7502 18.5052L23.0537 20.7606C24.0278 19.3339 23.2701 17.6848 22.0371 17.0873L20.2928 20.6869Z" fill="white" mask="url(#path-2-inside-1)"/>
<mask id="path-5-inside-2" fill="white">
<path d="M8.8065 23.5231C9.11089 23.5231 9.23796 23.1716 8.99071 23.0095L5.22879 20.5494C5.17506 20.514 5.1102 20.4949 5.0436 20.4949C4.977 20.4949 4.91213 20.514 4.85841 20.5494L1.09648 23.0095C0.849235 23.1707 0.976307 23.5231 1.28167 23.5231H1.89142V26.8351H1.18218C1.13884 26.8351 1.10338 26.867 1.10338 26.906V27.3665C1.10338 27.4054 1.13884 27.4373 1.18218 27.4373H8.90501C8.94835 27.4373 8.98381 27.4054 8.98381 27.3665V26.906C8.98381 26.867 8.94835 26.8351 8.90501 26.8351H8.19577V23.5231H8.8065ZM5.0436 21.1737L7.71408 22.9201H2.37311L5.0436 21.1737ZM2.60066 23.5231H3.75318V26.8351H2.60066V23.5231ZM4.46241 23.5231H5.61493V26.8351H4.46241V23.5231ZM7.48653 26.8351H6.32417V23.5231H7.48653V26.8351Z"/>
</mask>
<path d="M8.8065 23.5231C9.11089 23.5231 9.23796 23.1716 8.99071 23.0095L5.22879 20.5494C5.17506 20.514 5.1102 20.4949 5.0436 20.4949C4.977 20.4949 4.91213 20.514 4.85841 20.5494L1.09648 23.0095C0.849235 23.1707 0.976307 23.5231 1.28167 23.5231H1.89142V26.8351H1.18218C1.13884 26.8351 1.10338 26.867 1.10338 26.906V27.3665C1.10338 27.4054 1.13884 27.4373 1.18218 27.4373H8.90501C8.94835 27.4373 8.98381 27.4054 8.98381 27.3665V26.906C8.98381 26.867 8.94835 26.8351 8.90501 26.8351H8.19577V23.5231H8.8065ZM5.0436 21.1737L7.71408 22.9201H2.37311L5.0436 21.1737ZM2.60066 23.5231H3.75318V26.8351H2.60066V23.5231ZM4.46241 23.5231H5.61493V26.8351H4.46241V23.5231ZM7.48653 26.8351H6.32417V23.5231H7.48653V26.8351Z" fill="white"/>
<path d="M8.99071 23.0095L10.0871 21.3368L10.0853 21.3356L8.99071 23.0095ZM5.22879 20.5494L4.12866 22.2197L4.13417 22.2233L5.22879 20.5494ZM5.0436 20.4949V18.4949V20.4949ZM4.85841 20.5494L5.95303 22.2233L5.95853 22.2196L4.85841 20.5494ZM1.09648 23.0095L2.18866 24.685L2.1911 24.6834L1.09648 23.0095ZM1.89142 23.5231H3.89142V21.5231H1.89142V23.5231ZM1.89142 26.8351V28.8351H3.89142V26.8351H1.89142ZM8.19577 26.8351H6.19577V28.8351H8.19577V26.8351ZM8.19577 23.5231V21.5231H6.19577V23.5231H8.19577ZM5.0436 21.1737L6.1382 19.4999L5.0436 18.784L3.94899 19.4999L5.0436 21.1737ZM7.71408 22.9201V24.9201H14.4267L8.80869 21.2462L7.71408 22.9201ZM2.37311 22.9201L1.27851 21.2462L-4.33955 24.9201H2.37311V22.9201ZM2.60066 23.5231V21.5231H0.600661V23.5231H2.60066ZM3.75318 23.5231H5.75317V21.5231H3.75318V23.5231ZM3.75318 26.8351V28.8351H5.75317V26.8351H3.75318ZM2.60066 26.8351H0.600661V28.8351H2.60066V26.8351ZM4.46241 23.5231V21.5231H2.46241V23.5231H4.46241ZM5.61493 23.5231H7.61493V21.5231H5.61493V23.5231ZM5.61493 26.8351V28.8351H7.61493V26.8351H5.61493ZM4.46241 26.8351H2.46241V28.8351H4.46241V26.8351ZM7.48653 26.8351V28.8351H9.48653V26.8351H7.48653ZM6.32417 26.8351H4.32417V28.8351H6.32417V26.8351ZM6.32417 23.5231V21.5231H4.32417V23.5231H6.32417ZM7.48653 23.5231H9.48653V21.5231H7.48653V23.5231ZM8.8065 25.5231C9.79114 25.5231 10.6592 24.9164 10.9874 24.0041C11.3295 23.0532 11.0091 21.9411 10.0871 21.3368L7.89434 24.6822C7.21954 24.2399 6.95926 23.3846 7.22356 22.65C7.47394 21.9541 8.12625 21.5231 8.8065 21.5231V25.5231ZM10.0853 21.3356L6.3234 18.8755L4.13417 22.2233L7.89609 24.6834L10.0853 21.3356ZM6.32891 18.8791C5.93663 18.6208 5.48667 18.4949 5.0436 18.4949V22.4949C4.73372 22.4949 4.4135 22.4073 4.12866 22.2196L6.32891 18.8791ZM5.0436 18.4949C4.60053 18.4949 4.15056 18.6208 3.75828 18.8791L5.95853 22.2196C5.6737 22.4073 5.35347 22.4949 5.0436 22.4949V18.4949ZM3.76379 18.8755L0.00186598 21.3356L2.1911 24.6834L5.95302 22.2233L3.76379 18.8755ZM0.00431055 21.334C-0.92373 21.939 -1.24211 23.0551 -0.8996 24.0051C-0.570877 24.9168 0.297117 25.5231 1.28167 25.5231V21.5231C1.96086 21.5231 2.61264 21.9532 2.86329 22.6484C3.12774 23.3818 2.86945 24.2412 2.18866 24.685L0.00431055 21.334ZM1.28167 25.5231H1.89142V21.5231H1.28167V25.5231ZM-0.108578 23.5231V26.8351H3.89142V23.5231H-0.108578ZM1.89142 24.8351H1.18218V28.8351H1.89142V24.8351ZM1.18218 24.8351C0.239885 24.8351 -0.896621 25.5675 -0.896621 26.906H3.10338C3.10338 28.1666 2.0378 28.8351 1.18218 28.8351V24.8351ZM-0.896621 26.906V27.3665H3.10338V26.906H-0.896621ZM-0.896621 27.3665C-0.896621 28.705 0.239885 29.4373 1.18218 29.4373V25.4373C2.0378 25.4373 3.10338 26.1059 3.10338 27.3665H-0.896621ZM1.18218 29.4373H8.90501V25.4373H1.18218V29.4373ZM8.90501 29.4373C9.84731 29.4373 10.9838 28.705 10.9838 27.3665H6.98381C6.98381 26.1059 8.0494 25.4373 8.90501 25.4373V29.4373ZM10.9838 27.3665V26.906H6.98381V27.3665H10.9838ZM10.9838 26.906C10.9838 25.5675 9.84731 24.8351 8.90501 24.8351V28.8351C8.0494 28.8351 6.98381 28.1666 6.98381 26.906H10.9838ZM8.90501 24.8351H8.19577V28.8351H8.90501V24.8351ZM10.1958 26.8351V23.5231H6.19577V26.8351H10.1958ZM8.19577 25.5231H8.8065V21.5231H8.19577V25.5231ZM3.94899 22.8476L6.61947 24.5939L8.80869 21.2462L6.1382 19.4999L3.94899 22.8476ZM7.71408 20.9201H2.37311V24.9201H7.71408V20.9201ZM3.46772 24.5939L6.1382 22.8476L3.94899 19.4999L1.27851 21.2462L3.46772 24.5939ZM2.60066 25.5231H3.75318V21.5231H2.60066V25.5231ZM1.75317 23.5231V26.8351H5.75317V23.5231H1.75317ZM3.75318 24.8351H2.60066V28.8351H3.75318V24.8351ZM4.60066 26.8351V23.5231H0.600661V26.8351H4.60066ZM4.46241 25.5231H5.61493V21.5231H4.46241V25.5231ZM3.61493 23.5231V26.8351H7.61493V23.5231H3.61493ZM5.61493 24.8351H4.46241V28.8351H5.61493V24.8351ZM6.46241 26.8351V23.5231H2.46241V26.8351H6.46241ZM7.48653 24.8351H6.32417V28.8351H7.48653V24.8351ZM8.32417 26.8351V23.5231H4.32417V26.8351H8.32417ZM6.32417 25.5231H7.48653V21.5231H6.32417V25.5231ZM5.48653 23.5231V26.8351H9.48653V23.5231H5.48653Z" fill="white" mask="url(#path-5-inside-2)"/>
<mask id="path-8-inside-3" fill="white">
<path d="M16.5003 0.647705C13.7587 0.647705 11.5356 2.67793 11.5356 5.1818C11.5356 7.68567 13.7587 9.71589 16.5003 9.71589C19.242 9.71589 21.465 7.68567 21.465 5.1818C21.465 2.67793 19.242 0.647705 16.5003 0.647705ZM16.5003 8.94671C14.2241 8.94671 12.3779 7.2606 12.3779 5.1818C12.3779 3.103 14.2241 1.41688 16.5003 1.41688C18.7765 1.41688 20.6228 3.103 20.6228 5.1818C20.6228 7.2606 18.7765 8.94671 16.5003 8.94671ZM17.0289 4.94699L16.7474 4.88728V3.52807C17.1686 3.5807 17.429 3.82157 17.4733 4.11709C17.4788 4.15758 17.5165 4.18693 17.5609 4.18693H18.0584C18.1105 4.18693 18.1515 4.14543 18.1471 4.09787C18.0795 3.46734 17.511 3.06251 16.7519 2.99268V2.66173C16.7519 2.6172 16.712 2.58077 16.6632 2.58077H16.3518C16.3031 2.58077 16.2632 2.6172 16.2632 2.66173V2.99572C15.4786 3.06555 14.8646 3.46127 14.8646 4.20008C14.8646 4.88425 15.4165 5.21418 15.9961 5.34069L16.2698 5.40445V6.84868C15.78 6.78897 15.5052 6.55012 15.4486 6.22828C15.442 6.18982 15.4043 6.16148 15.3611 6.16148H14.8491C14.797 6.16148 14.756 6.20197 14.7605 6.24953C14.8103 6.80617 15.2724 7.31828 16.2587 7.38407V7.70186C16.2587 7.74639 16.2986 7.78283 16.3474 7.78283H16.6621C16.7109 7.78283 16.7508 7.74639 16.7508 7.70085L16.7486 7.38002C17.6163 7.31019 18.2368 6.88613 18.2368 6.12505C18.2357 5.42267 17.747 5.10893 17.0289 4.94699ZM16.2687 4.78304C16.2066 4.76685 16.1546 4.75167 16.1025 4.73244C15.7279 4.60896 15.5539 4.40958 15.5539 4.15252C15.5539 3.78513 15.8587 3.57563 16.2687 3.52807V4.78304ZM16.7474 6.85172V5.49858C16.7818 5.50768 16.8128 5.51477 16.845 5.52084C17.3691 5.66658 17.5453 5.86899 17.5453 6.1797C17.5453 6.57542 17.2195 6.81326 16.7474 6.85172Z"/>
</mask>
<path d="M16.5003 0.647705C13.7587 0.647705 11.5356 2.67793 11.5356 5.1818C11.5356 7.68567 13.7587 9.71589 16.5003 9.71589C19.242 9.71589 21.465 7.68567 21.465 5.1818C21.465 2.67793 19.242 0.647705 16.5003 0.647705ZM16.5003 8.94671C14.2241 8.94671 12.3779 7.2606 12.3779 5.1818C12.3779 3.103 14.2241 1.41688 16.5003 1.41688C18.7765 1.41688 20.6228 3.103 20.6228 5.1818C20.6228 7.2606 18.7765 8.94671 16.5003 8.94671ZM17.0289 4.94699L16.7474 4.88728V3.52807C17.1686 3.5807 17.429 3.82157 17.4733 4.11709C17.4788 4.15758 17.5165 4.18693 17.5609 4.18693H18.0584C18.1105 4.18693 18.1515 4.14543 18.1471 4.09787C18.0795 3.46734 17.511 3.06251 16.7519 2.99268V2.66173C16.7519 2.6172 16.712 2.58077 16.6632 2.58077H16.3518C16.3031 2.58077 16.2632 2.6172 16.2632 2.66173V2.99572C15.4786 3.06555 14.8646 3.46127 14.8646 4.20008C14.8646 4.88425 15.4165 5.21418 15.9961 5.34069L16.2698 5.40445V6.84868C15.78 6.78897 15.5052 6.55012 15.4486 6.22828C15.442 6.18982 15.4043 6.16148 15.3611 6.16148H14.8491C14.797 6.16148 14.756 6.20197 14.7605 6.24953C14.8103 6.80617 15.2724 7.31828 16.2587 7.38407V7.70186C16.2587 7.74639 16.2986 7.78283 16.3474 7.78283H16.6621C16.7109 7.78283 16.7508 7.74639 16.7508 7.70085L16.7486 7.38002C17.6163 7.31019 18.2368 6.88613 18.2368 6.12505C18.2357 5.42267 17.747 5.10893 17.0289 4.94699ZM16.2687 4.78304C16.2066 4.76685 16.1546 4.75167 16.1025 4.73244C15.7279 4.60896 15.5539 4.40958 15.5539 4.15252C15.5539 3.78513 15.8587 3.57563 16.2687 3.52807V4.78304ZM16.7474 6.85172V5.49858C16.7818 5.50768 16.8128 5.51477 16.845 5.52084C17.3691 5.66658 17.5453 5.86899 17.5453 6.1797C17.5453 6.57542 17.2195 6.81326 16.7474 6.85172Z" fill="white"/>
<path d="M16.7474 4.88728H14.7474V6.50751L16.3324 6.84374L16.7474 4.88728ZM16.7474 3.52807L16.9955 1.54351L14.7474 1.26256V3.52807H16.7474ZM17.4733 4.11709L19.4548 3.84588L19.4531 3.83314L19.4512 3.82042L17.4733 4.11709ZM18.1471 4.09787L20.1385 3.91229L20.1372 3.89847L20.1357 3.88466L18.1471 4.09787ZM16.7519 2.99268H14.7519V4.81714L16.5687 4.98427L16.7519 2.99268ZM16.2632 2.99572L16.4405 4.98784L18.2632 4.82561V2.99572H16.2632ZM15.9961 5.34069L16.4498 3.39284L16.4362 3.38967L16.4226 3.3867L15.9961 5.34069ZM16.2698 5.40445H18.2698V3.81679L16.7235 3.4566L16.2698 5.40445ZM16.2698 6.84868L16.0278 8.83398L18.2698 9.1073V6.84868H16.2698ZM15.4486 6.22828L13.4779 6.56901L13.4788 6.5742L15.4486 6.22828ZM14.7605 6.24953L16.7525 6.07107L16.7518 6.06396L14.7605 6.24953ZM16.2587 7.38407H18.2587V5.51302L16.3918 5.3885L16.2587 7.38407ZM16.7508 7.70085H18.7508L18.7507 7.68704L16.7508 7.70085ZM16.7486 7.38002L16.5881 5.38647L14.7358 5.53554L14.7486 7.39383L16.7486 7.38002ZM18.2368 6.12505H20.2368L20.2368 6.12189L18.2368 6.12505ZM16.2687 4.78304L15.7637 6.71824L18.2687 7.37187V4.78304H16.2687ZM16.1025 4.73244L16.7952 2.85622L16.7621 2.84401L16.7286 2.83298L16.1025 4.73244ZM16.2687 3.52807H18.2687V1.28263L16.0382 1.54139L16.2687 3.52807ZM16.7474 6.85172H14.7474V9.02127L16.9098 8.84511L16.7474 6.85172ZM16.7474 5.49858L17.26 3.56537L14.7474 2.89918V5.49858H16.7474ZM16.845 5.52084L17.3807 3.59393L17.2993 3.5713L17.2163 3.55562L16.845 5.52084ZM16.5003 -1.35229C12.8287 -1.35229 9.53564 1.40645 9.53564 5.1818H13.5356C13.5356 3.9494 14.6886 2.64771 16.5003 2.64771V-1.35229ZM9.53564 5.1818C9.53564 8.95714 12.8287 11.7159 16.5003 11.7159V7.71589C14.6886 7.71589 13.5356 6.41419 13.5356 5.1818H9.53564ZM16.5003 11.7159C20.1719 11.7159 23.465 8.95714 23.465 5.1818H19.465C19.465 6.41419 18.312 7.71589 16.5003 7.71589V11.7159ZM23.465 5.1818C23.465 1.40645 20.1719 -1.35229 16.5003 -1.35229V2.64771C18.312 2.64771 19.465 3.9494 19.465 5.1818H23.465ZM16.5003 6.94671C15.154 6.94671 14.3779 5.98912 14.3779 5.1818H10.3779C10.3779 8.53207 13.2942 10.9467 16.5003 10.9467V6.94671ZM14.3779 5.1818C14.3779 4.37447 15.154 3.41688 16.5003 3.41688V-0.583119C13.2942 -0.583119 10.3779 1.83152 10.3779 5.1818H14.3779ZM16.5003 3.41688C17.8466 3.41688 18.6228 4.37447 18.6228 5.1818H22.6228C22.6228 1.83152 19.7065 -0.583119 16.5003 -0.583119V3.41688ZM18.6228 5.1818C18.6228 5.98912 17.8466 6.94671 16.5003 6.94671V10.9467C19.7065 10.9467 22.6228 8.53207 22.6228 5.1818H18.6228ZM17.444 2.99053L17.1625 2.93082L16.3324 6.84374L16.6139 6.90346L17.444 2.99053ZM18.7474 4.88728V3.52807H14.7474V4.88728H18.7474ZM16.4994 5.51263C16.3914 5.49913 16.1823 5.44551 15.964 5.26182C15.7375 5.07122 15.5498 4.77615 15.4954 4.41377L19.4512 3.82042C19.2391 2.40648 18.0503 1.67533 16.9955 1.54351L16.4994 5.51263ZM15.4918 4.38831C15.6551 5.58132 16.6894 6.18693 17.5609 6.18693V2.18693C18.3436 2.18693 19.3026 2.73383 19.4548 3.84588L15.4918 4.38831ZM17.5609 6.18693H18.0584V2.18693H17.5609V6.18693ZM18.0584 6.18693C19.1148 6.18693 20.2677 5.29879 20.1385 3.91229L16.1557 4.28344C16.0354 2.99207 17.1062 2.18693 18.0584 2.18693V6.18693ZM20.1357 3.88466C19.9251 1.92014 18.1925 1.11677 16.9351 1.00109L16.5687 4.98427C16.659 4.99258 16.607 5.01068 16.4896 4.92047C16.4266 4.87196 16.348 4.79342 16.2807 4.67841C16.2119 4.56076 16.1715 4.4327 16.1585 4.31107L20.1357 3.88466ZM18.7519 2.99268V2.66173H14.7519V2.99268H18.7519ZM18.7519 2.66173C18.7519 1.34572 17.6419 0.580766 16.6632 0.580766V4.58077C15.7821 4.58077 14.7519 3.88868 14.7519 2.66173H18.7519ZM16.6632 0.580766H16.3518V4.58077H16.6632V0.580766ZM16.3518 0.580766C15.3731 0.580766 14.2632 1.34572 14.2632 2.66173H18.2632C18.2632 3.88868 17.233 4.58077 16.3518 4.58077V0.580766ZM14.2632 2.66173V2.99572H18.2632V2.66173H14.2632ZM16.0859 1.00359C15.4383 1.06123 14.6739 1.2656 14.025 1.78155C13.313 2.34765 12.8646 3.19989 12.8646 4.20008H16.8646C16.8646 4.29982 16.842 4.4411 16.7678 4.59204C16.6947 4.74097 16.5973 4.8466 16.5144 4.91251C16.3686 5.02844 16.3034 5.00004 16.4405 4.98784L16.0859 1.00359ZM12.8646 4.20008C12.8646 5.15888 13.2826 5.94883 13.8972 6.48571C14.4501 6.96875 15.0884 7.18965 15.5696 7.29468L16.4226 3.3867C16.3242 3.36522 16.3967 3.35791 16.5288 3.4733C16.606 3.54076 16.6989 3.64753 16.7694 3.79717C16.8413 3.94992 16.8646 4.09404 16.8646 4.20008H12.8646ZM15.5424 7.28854L15.8161 7.3523L16.7235 3.4566L16.4498 3.39284L15.5424 7.28854ZM14.2698 5.40445V6.84868H18.2698V5.40445H14.2698ZM16.5118 4.86338C16.5286 4.86542 16.7105 4.89016 16.9307 5.06283C17.1757 5.25486 17.36 5.54911 17.4185 5.88236L13.4788 6.5742C13.7382 8.0513 14.9937 8.70792 16.0278 8.83398L16.5118 4.86338ZM17.4194 5.88756C17.2181 4.72329 16.1976 4.16148 15.3611 4.16148V8.16148C14.611 8.16148 13.6659 7.65635 13.4779 6.56901L17.4194 5.88756ZM15.3611 4.16148H14.8491V8.16148H15.3611V4.16148ZM14.8491 4.16148C13.8249 4.16148 12.6371 5.01916 12.7691 6.43511L16.7518 6.06396C16.8749 7.38478 15.7691 8.16148 14.8491 8.16148V4.16148ZM12.7684 6.428C12.8395 7.2211 13.2133 7.97896 13.8721 8.53231C14.5162 9.07333 15.3159 9.32562 16.1256 9.37963L16.3918 5.3885C16.2153 5.37673 16.2908 5.34008 16.4448 5.46943C16.6135 5.61112 16.7313 5.83461 16.7525 6.07107L12.7684 6.428ZM14.2587 7.38407V7.70186H18.2587V7.38407H14.2587ZM14.2587 7.70186C14.2587 9.01787 15.3687 9.78283 16.3474 9.78283V5.78283C17.2286 5.78283 18.2587 6.47491 18.2587 7.70186H14.2587ZM16.3474 9.78283H16.6621V5.78283H16.3474V9.78283ZM16.6621 9.78283C17.6576 9.78283 18.7508 9.00246 18.7508 7.70085H14.7508C14.7508 6.49032 15.7642 5.78283 16.6621 5.78283V9.78283ZM18.7507 7.68704L18.7485 7.36621L14.7486 7.39383L14.7508 7.71466L18.7507 7.68704ZM16.909 9.37358C17.5966 9.31824 18.3934 9.11018 19.0638 8.57641C19.7983 7.99166 20.2368 7.12213 20.2368 6.12505H16.2368C16.2368 6.03697 16.2565 5.90449 16.3269 5.75944C16.3968 5.61533 16.491 5.51188 16.5724 5.4471C16.7156 5.33308 16.7682 5.37197 16.5881 5.38647L16.909 9.37358ZM20.2368 6.12189C20.2354 5.23572 19.8939 4.42183 19.2224 3.83138C18.6414 3.32056 17.957 3.10605 17.4689 2.99598L16.589 6.89801C16.6355 6.90849 16.6701 6.91798 16.6948 6.92561C16.7195 6.93327 16.7303 6.9379 16.7301 6.93782C16.7299 6.93773 16.7148 6.93128 16.6894 6.91587C16.6637 6.90028 16.6256 6.8744 16.5811 6.83533C16.4856 6.75131 16.3857 6.62772 16.3163 6.46913C16.2485 6.31413 16.2369 6.18791 16.2368 6.1282L20.2368 6.12189ZM16.7737 2.84784C16.7573 2.84356 16.7544 2.84258 16.7589 2.84393C16.7646 2.84565 16.7777 2.84976 16.7952 2.85622L15.4098 6.60865C15.5494 6.6602 15.6722 6.69437 15.7637 6.71824L16.7737 2.84784ZM16.7286 2.83298C16.7361 2.83543 16.9385 2.89994 17.1544 3.13278C17.41 3.40854 17.5539 3.78135 17.5539 4.15252H13.5539C13.5539 4.78075 13.7848 5.38179 14.2211 5.85237C14.6176 6.28003 15.0943 6.50597 15.4763 6.6319L16.7286 2.83298ZM17.5539 4.15252C17.5539 4.34471 17.5122 4.56373 17.4071 4.78011C17.3032 4.99419 17.1617 5.15564 17.0238 5.26844C16.7667 5.47878 16.5422 5.50975 16.4992 5.51474L16.0382 1.54139C15.5852 1.59395 15.0033 1.75345 14.4913 2.17229C13.9211 2.63872 13.5539 3.34151 13.5539 4.15252H17.5539ZM14.2687 3.52807V4.78304H18.2687V3.52807H14.2687ZM18.7474 6.85172V5.49858H14.7474V6.85172H18.7474ZM16.2349 7.43178C16.3119 7.45221 16.3902 7.4703 16.4736 7.48607L17.2163 3.55562C17.2247 3.5572 17.2335 3.55904 17.2422 3.56102C17.2508 3.56297 17.257 3.56456 17.26 3.56537L16.2349 7.43178ZM16.3092 7.44775C16.4465 7.48593 16.2369 7.45761 15.99 7.21502C15.8484 7.07585 15.7226 6.89354 15.6403 6.67734C15.5613 6.46966 15.5453 6.29111 15.5453 6.1797H19.5453C19.5453 5.58872 19.3521 4.91077 18.7934 4.3618C18.3274 3.90389 17.7676 3.70149 17.3807 3.59393L16.3092 7.44775ZM15.5453 6.1797C15.5453 5.99759 15.5845 5.78686 15.686 5.57671C15.7868 5.36788 15.9257 5.20802 16.0649 5.09532C16.3271 4.88303 16.5529 4.86094 16.5851 4.85832L16.9098 8.84511C17.4141 8.80404 18.0389 8.6438 18.582 8.20404C19.1806 7.71934 19.5453 6.9948 19.5453 6.1797H15.5453Z" fill="white" mask="url(#path-8-inside-3)"/>
<mask id="path-11-inside-4" fill="white">
<path d="M30.7196 23.5231C31.024 23.5231 31.151 23.1716 30.9038 23.0095L27.1419 20.5494C27.0881 20.514 27.0233 20.4949 26.9567 20.4949C26.8901 20.4949 26.8252 20.514 26.7715 20.5494L23.0096 23.0095C22.7623 23.1707 22.8894 23.5231 23.1948 23.5231H23.8045V26.8351H23.0953C23.0519 26.8351 23.0165 26.867 23.0165 26.906V27.3665C23.0165 27.4054 23.0519 27.4373 23.0953 27.4373H30.8181C30.8614 27.4373 30.8969 27.4054 30.8969 27.3665V26.906C30.8969 26.867 30.8614 26.8351 30.8181 26.8351H30.1089V23.5231H30.7196ZM26.9567 21.1737L29.6272 22.9201H24.2862L26.9567 21.1737ZM24.5137 23.5231H25.6663V26.8351H24.5137V23.5231ZM26.3755 23.5231H27.528V26.8351H26.3755V23.5231ZM29.3996 26.8351H28.2373V23.5231H29.3996V26.8351Z"/>
</mask>
<path d="M30.7196 23.5231C31.024 23.5231 31.151 23.1716 30.9038 23.0095L27.1419 20.5494C27.0881 20.514 27.0233 20.4949 26.9567 20.4949C26.8901 20.4949 26.8252 20.514 26.7715 20.5494L23.0096 23.0095C22.7623 23.1707 22.8894 23.5231 23.1948 23.5231H23.8045V26.8351H23.0953C23.0519 26.8351 23.0165 26.867 23.0165 26.906V27.3665C23.0165 27.4054 23.0519 27.4373 23.0953 27.4373H30.8181C30.8614 27.4373 30.8969 27.4054 30.8969 27.3665V26.906C30.8969 26.867 30.8614 26.8351 30.8181 26.8351H30.1089V23.5231H30.7196ZM26.9567 21.1737L29.6272 22.9201H24.2862L26.9567 21.1737ZM24.5137 23.5231H25.6663V26.8351H24.5137V23.5231ZM26.3755 23.5231H27.528V26.8351H26.3755V23.5231ZM29.3996 26.8351H28.2373V23.5231H29.3996V26.8351Z" fill="white"/>
<path d="M30.9038 23.0095L32.0002 21.3368L31.9984 21.3356L30.9038 23.0095ZM27.1419 20.5494L26.0417 22.2197L26.0473 22.2233L27.1419 20.5494ZM26.9567 20.4949V18.4949V20.4949ZM26.7715 20.5494L27.8661 22.2233L27.8716 22.2196L26.7715 20.5494ZM23.0096 23.0095L24.1017 24.685L24.1042 24.6834L23.0096 23.0095ZM23.8045 23.5231H25.8045V21.5231H23.8045V23.5231ZM23.8045 26.8351V28.8351H25.8045V26.8351H23.8045ZM30.1089 26.8351H28.1089V28.8351H30.1089V26.8351ZM30.1089 23.5231V21.5231H28.1089V23.5231H30.1089ZM26.9567 21.1737L28.0513 19.4999L26.9567 18.784L25.8621 19.4999L26.9567 21.1737ZM29.6272 22.9201V24.9201H36.3398L30.7218 21.2462L29.6272 22.9201ZM24.2862 22.9201L23.1916 21.2462L17.5735 24.9201H24.2862V22.9201ZM24.5137 23.5231V21.5231H22.5137V23.5231H24.5137ZM25.6663 23.5231H27.6663V21.5231H25.6663V23.5231ZM25.6663 26.8351V28.8351H27.6663V26.8351H25.6663ZM24.5137 26.8351H22.5137V28.8351H24.5137V26.8351ZM26.3755 23.5231V21.5231H24.3755V23.5231H26.3755ZM27.528 23.5231H29.528V21.5231H27.528V23.5231ZM27.528 26.8351V28.8351H29.528V26.8351H27.528ZM26.3755 26.8351H24.3755V28.8351H26.3755V26.8351ZM29.3996 26.8351V28.8351H31.3996V26.8351H29.3996ZM28.2373 26.8351H26.2373V28.8351H28.2373V26.8351ZM28.2373 23.5231V21.5231H26.2373V23.5231H28.2373ZM29.3996 23.5231H31.3996V21.5231H29.3996V23.5231ZM30.7196 25.5231C31.7042 25.5231 32.5723 24.9164 32.9005 24.0041C33.2426 23.0532 32.9222 21.9411 32.0002 21.3368L29.8074 24.6822C29.1326 24.2399 28.8723 23.3846 29.1366 22.65C29.387 21.9541 30.0393 21.5231 30.7196 21.5231V25.5231ZM31.9984 21.3356L28.2365 18.8755L26.0473 22.2233L29.8092 24.6834L31.9984 21.3356ZM28.242 18.8791C27.8497 18.6208 27.3998 18.4949 26.9567 18.4949V22.4949C26.6468 22.4949 26.3266 22.4073 26.0417 22.2196L28.242 18.8791ZM26.9567 18.4949C26.5136 18.4949 26.0636 18.6208 25.6714 18.8791L27.8716 22.2196C27.5868 22.4073 27.2666 22.4949 26.9567 22.4949V18.4949ZM25.6769 18.8755L21.915 21.3356L24.1042 24.6834L27.8661 22.2233L25.6769 18.8755ZM21.9174 21.334C20.9894 21.939 20.671 23.0551 21.0135 24.0051C21.3422 24.9168 22.2102 25.5231 23.1948 25.5231V21.5231C23.8739 21.5231 24.5257 21.9532 24.7764 22.6484C25.0408 23.3818 24.7825 24.2412 24.1017 24.685L21.9174 21.334ZM23.1948 25.5231H23.8045V21.5231H23.1948V25.5231ZM21.8045 23.5231V26.8351H25.8045V23.5231H21.8045ZM23.8045 24.8351H23.0953V28.8351H23.8045V24.8351ZM23.0953 24.8351C22.153 24.8351 21.0165 25.5675 21.0165 26.906H25.0165C25.0165 28.1666 23.9509 28.8351 23.0953 28.8351V24.8351ZM21.0165 26.906V27.3665H25.0165V26.906H21.0165ZM21.0165 27.3665C21.0165 28.705 22.153 29.4373 23.0953 29.4373V25.4373C23.9509 25.4373 25.0165 26.1059 25.0165 27.3665H21.0165ZM23.0953 29.4373H30.8181V25.4373H23.0953V29.4373ZM30.8181 29.4373C31.7604 29.4373 32.8969 28.705 32.8969 27.3665H28.8969C28.8969 26.1059 29.9625 25.4373 30.8181 25.4373V29.4373ZM32.8969 27.3665V26.906H28.8969V27.3665H32.8969ZM32.8969 26.906C32.8969 25.5675 31.7604 24.8351 30.8181 24.8351V28.8351C29.9625 28.8351 28.8969 28.1666 28.8969 26.906H32.8969ZM30.8181 24.8351H30.1089V28.8351H30.8181V24.8351ZM32.1089 26.8351V23.5231H28.1089V26.8351H32.1089ZM30.1089 25.5231H30.7196V21.5231H30.1089V25.5231ZM25.8621 22.8476L28.5326 24.5939L30.7218 21.2462L28.0513 19.4999L25.8621 22.8476ZM29.6272 20.9201H24.2862V24.9201H29.6272V20.9201ZM25.3808 24.5939L28.0513 22.8476L25.8621 19.4999L23.1916 21.2462L25.3808 24.5939ZM24.5137 25.5231H25.6663V21.5231H24.5137V25.5231ZM23.6663 23.5231V26.8351H27.6663V23.5231H23.6663ZM25.6663 24.8351H24.5137V28.8351H25.6663V24.8351ZM26.5137 26.8351V23.5231H22.5137V26.8351H26.5137ZM26.3755 25.5231H27.528V21.5231H26.3755V25.5231ZM25.528 23.5231V26.8351H29.528V23.5231H25.528ZM27.528 24.8351H26.3755V28.8351H27.528V24.8351ZM28.3755 26.8351V23.5231H24.3755V26.8351H28.3755ZM29.3996 24.8351H28.2373V28.8351H29.3996V24.8351ZM30.2373 26.8351V23.5231H26.2373V26.8351H30.2373ZM28.2373 25.5231H29.3996V21.5231H28.2373V25.5231ZM27.3996 23.5231V26.8351H31.3996V23.5231H27.3996Z" fill="white" mask="url(#path-11-inside-4)"/>
</svg>
