<svg width="29" height="29" viewBox="0 0 29 29" fill="none" xmlns="http://www.w3.org/2000/svg">
<path d="M14.4209 17.3783V16.3783H13.4209H12.9259L14.4997 14.3872L16.0746 16.3811H15.5732H14.5732V17.3811V23.4697H14.4209V17.3783Z" fill="white" stroke="white" stroke-width="2"/>
<path d="M21.5252 20.3711C22.1179 20.3724 22.705 20.2563 23.2525 20.0294C23.7996 19.8027 24.2964 19.4699 24.7142 19.0502C25.5648 18.1996 26.0352 17.0615 26.0352 15.8594C26.0352 13.8145 24.6573 12.0233 22.687 11.4925L22.6826 11.4914L22.1097 11.3398L21.9009 10.7876L21.9007 10.7869C21.6218 10.0508 21.2326 9.35655 20.7425 8.73006C20.2605 8.11225 19.6905 7.56816 19.0459 7.11464L19.0457 7.11451C17.7127 6.1772 16.141 5.68076 14.5057 5.68076C12.8703 5.68076 11.2986 6.1772 9.96562 7.11451L9.9654 7.11466C9.32321 7.56648 8.75145 8.11089 8.26872 8.73018C7.7797 9.35535 7.39007 10.0466 7.11063 10.787C7.11047 10.7874 7.11031 10.7879 7.11015 10.7883L6.90041 11.3405L6.32608 11.4906L6.32607 11.4906L6.3223 11.4916C5.37349 11.7434 4.52543 12.3063 3.91987 13.0787L3.9183 13.0807C3.327 13.8389 2.99812 14.7445 2.96542 15.7035L2.96537 15.7051C2.92548 16.9309 3.37938 18.1181 4.23582 19.0001L4.23586 19.0001C5.09204 19.8817 6.24836 20.3711 7.47373 20.3711H7.83594V20.5234H7.47373C4.89978 20.5234 2.8125 18.4368 2.8125 15.8594C2.8125 13.6968 4.28788 11.8741 6.28616 11.3494L6.78459 11.2186L6.96728 10.7367C8.12199 7.69111 11.0636 5.53125 14.5057 5.53125C17.9472 5.53125 20.8891 7.69345 22.0441 10.7396L22.2264 11.2204L22.7236 11.3519C24.7167 11.8787 26.1875 13.6987 26.1875 15.8594C26.1875 18.4368 24.1002 20.5234 21.5263 20.5234H21.1641M21.5252 20.3711C21.5247 20.3711 21.5242 20.3711 21.5236 20.3711L21.5263 19.3711V20.3711H21.5252ZM21.5252 20.3711H21.1641M21.1641 20.3711V19.5977C21.1641 20.0253 20.8183 20.3711 20.3906 20.3711H21.1641ZM21.1641 20.3711V20.5234M21.1641 20.5234H20.3906C20.8183 20.5234 21.1641 20.8692 21.1641 21.2969V20.5234Z" fill="white" stroke="white" stroke-width="2"/>
</svg>
