<svg width="30" height="31" viewBox="0 0 30 31" fill="none" xmlns="http://www.w3.org/2000/svg">
<path d="M29.3994 19.3869L27.1607 17.4728C27.2666 16.8234 27.3213 16.1603 27.3213 15.4973C27.3213 14.8342 27.2666 14.1711 27.1607 13.5217L29.3994 11.6076C29.5683 11.463 29.6891 11.2705 29.7459 11.0556C29.8027 10.8407 29.7927 10.6136 29.7173 10.4045L29.6865 10.3156C29.0702 8.59305 28.1473 6.9962 26.9624 5.60223L26.9009 5.53046C26.7571 5.36144 26.5656 5.23995 26.3514 5.18199C26.1372 5.12402 25.9105 5.13231 25.7012 5.20575L22.9224 6.19354C21.897 5.35272 20.752 4.68964 19.5147 4.22479L18.978 1.31952C18.9375 1.10091 18.8315 0.899801 18.674 0.7429C18.5165 0.586 18.315 0.480738 18.0962 0.441101L18.0039 0.424011C16.2232 0.102722 14.3501 0.102722 12.5693 0.424011L12.4771 0.441101C12.2583 0.480738 12.0568 0.586 11.8993 0.7429C11.7418 0.899801 11.6357 1.10091 11.5952 1.31952L11.0552 4.23846C9.82775 4.7034 8.68471 5.36614 7.67139 6.20038L4.87208 5.20575C4.66278 5.13172 4.43591 5.12314 4.22162 5.18114C4.00733 5.23914 3.81576 5.36097 3.67237 5.53046L3.61085 5.60223C2.42736 6.99719 1.50461 8.59377 0.886726 10.3156L0.855964 10.4045C0.702155 10.8317 0.82862 11.3102 1.17384 11.6076L3.43995 13.5422C3.33399 14.1848 3.28272 14.841 3.28272 15.4938C3.28272 16.1501 3.33399 16.8063 3.43995 17.4455L1.17384 19.3801C1.00497 19.5246 0.884116 19.7172 0.827335 19.9321C0.770554 20.147 0.78054 20.3741 0.855964 20.5832L0.886726 20.6721C1.50538 22.3947 2.42139 23.9841 3.61085 25.3854L3.67237 25.4572C3.81611 25.6262 4.00769 25.7477 4.22185 25.8057C4.43601 25.8636 4.66272 25.8554 4.87208 25.7819L7.67139 24.7873C8.68995 25.6247 9.82813 26.2878 11.0552 26.7492L11.5952 29.6682C11.6357 29.8868 11.7418 30.0879 11.8993 30.2448C12.0568 30.4017 12.2583 30.5069 12.4771 30.5466L12.5693 30.5637C14.3665 30.8867 16.2068 30.8867 18.0039 30.5637L18.0962 30.5466C18.315 30.5069 18.5165 30.4017 18.674 30.2448C18.8315 30.0879 18.9375 29.8868 18.978 29.6682L19.5147 26.7629C20.7515 26.2993 21.9029 25.634 22.9224 24.7941L25.7012 25.7819C25.9105 25.8559 26.1373 25.8645 26.3516 25.8065C26.5659 25.7485 26.7575 25.6267 26.9009 25.4572L26.9624 25.3854C28.1519 23.9807 29.0679 22.3947 29.6865 20.6721L29.7173 20.5832C29.8711 20.1628 29.7446 19.6843 29.3994 19.3869ZM24.7339 13.925C24.8193 14.4411 24.8638 14.9709 24.8638 15.5007C24.8638 16.0305 24.8193 16.5602 24.7339 17.0764L24.5083 18.447L27.0615 20.631C26.6745 21.5228 26.1859 22.3669 25.6055 23.1467L22.4336 22.0222L21.3604 22.904C20.5435 23.5739 19.6343 24.1003 18.6499 24.4694L17.3477 24.9582L16.7358 28.2736C15.7705 28.383 14.7959 28.383 13.8306 28.2736L13.2188 24.9514L11.9268 24.4557C10.9526 24.0866 10.0469 23.5602 9.23682 22.8937L8.16358 22.0085L4.9712 23.1432C4.39014 22.3605 3.90479 21.5163 3.51514 20.6276L6.09571 18.423L5.87354 17.0558C5.79151 16.5466 5.74708 16.0202 5.74708 15.5007C5.74708 14.9777 5.78809 14.4548 5.87354 13.9455L6.09571 12.5783L3.51514 10.3737C3.90137 9.48163 4.39014 8.64081 4.9712 7.85809L8.16358 8.99286L9.23682 8.1076C10.0469 7.4411 10.9526 6.91473 11.9268 6.54559L13.2222 6.05682L13.834 2.73456C14.7944 2.62518 15.7754 2.62518 16.7393 2.73456L17.3511 6.04999L18.6533 6.53876C19.6343 6.9079 20.5469 7.43427 21.3638 8.10419L22.437 8.98602L25.6089 7.86151C26.1899 8.64423 26.6753 9.48846 27.0649 10.3771L24.5117 12.5612L24.7339 13.925ZM15.29 9.14325C11.9678 9.14325 9.27442 11.8366 9.27442 15.1589C9.27442 18.4811 11.9678 21.1745 15.29 21.1745C18.6123 21.1745 21.3057 18.4811 21.3057 15.1589C21.3057 11.8366 18.6123 9.14325 15.29 9.14325ZM17.9971 17.8659C17.642 18.222 17.2201 18.5043 16.7555 18.6967C16.2909 18.8891 15.7929 18.9878 15.29 18.987C14.2681 18.987 13.3076 18.5871 12.583 17.8659C12.2269 17.5109 11.9446 17.0889 11.7522 16.6243C11.5598 16.1597 11.4611 15.6617 11.4619 15.1589C11.4619 14.1369 11.8618 13.1765 12.583 12.4518C13.3076 11.7272 14.2681 11.3307 15.29 11.3307C16.312 11.3307 17.2725 11.7272 17.9971 12.4518C18.3531 12.8069 18.6355 13.2288 18.8279 13.6934C19.0203 14.158 19.119 14.656 19.1182 15.1589C19.1182 16.1808 18.7183 17.1413 17.9971 17.8659Z" fill="white"/>
</svg>
