<svg width="27" height="24" viewBox="0 0 27 24" fill="none" xmlns="http://www.w3.org/2000/svg">
<path d="M25.1106 12.5286C25.1257 12.5432 25.14 12.5581 25.1535 12.5733L24.6727 12.1093L14.8514 2.63221L14.8512 2.63201L14.1972 2.00056L13.5029 1.33019L12.8084 2.00028L2.32984 12.1093L1.83168 12.5899C1.84912 12.5691 1.86785 12.549 1.88784 12.5298L1.88907 12.5286L13.4998 1.32367L14.1674 1.96827L14.1676 1.96845L25.1104 12.5284C25.1105 12.5285 25.1105 12.5286 25.1106 12.5286ZM4.70383 14.7977V13.8289H4.74289V21.7348V22.7036H4.70383V14.7977ZM22.2568 21.7348V13.8289H22.2958V14.7977V22.7036H22.2568V21.7348Z" fill="white" stroke="white" stroke-width="2"/>
</svg>
