<svg width="533" height="710" viewBox="0 0 533 710" fill="none" xmlns="http://www.w3.org/2000/svg">
<g filter="url(#filter0_i)">
<path d="M266.196 503.751C327.042 443.002 383.654 428.207 462.61 415.971C541.565 403.735 603.057 548.641 596.5 481C589.943 413.359 530.059 439.539 567 415.971C603.941 392.403 584 363 584 363L567 47.5C567 47.5 381.398 49.4705 356.5 170.5C331.602 291.53 38.4335 225.044 25.5187 315.127C12.6039 405.21 105.595 409.742 136.747 471.396C167.899 533.05 205.349 564.501 266.196 503.751Z" fill="url(#paint0_linear)"/>
</g>
<defs>
<filter id="filter0_i" x="0.0883789" y="0.300537" width="769.178" height="713.109" filterUnits="userSpaceOnUse" color-interpolation-filters="sRGB">
<feFlood flood-opacity="0" result="BackgroundImageFix"/>
<feBlend mode="normal" in="SourceGraphic" in2="BackgroundImageFix" result="shape"/>
<feColorMatrix in="SourceAlpha" type="matrix" values="0 0 0 0 0 0 0 0 0 0 0 0 0 0 0 0 0 0 127 0" result="hardAlpha"/>
<feOffset dy="4"/>
<feGaussianBlur stdDeviation="15"/>
<feComposite in2="hardAlpha" operator="arithmetic" k2="-1" k3="1"/>
<feColorMatrix type="matrix" values="0 0 0 0 0 0 0 0 0 0 0 0 0 0 0 0 0 0 0.3 0"/>
<feBlend mode="normal" in2="shape" result="effect1_innerShadow"/>
</filter>
<linearGradient id="paint0_linear" x1="550.033" y1="61.9667" x2="176.731" y2="630.005" gradientUnits="userSpaceOnUse">
<stop stop-color="#39B1FF"/>
<stop offset="0.152517" stop-color="#4EB9FF"/>
<stop offset="0.373952" stop-color="#43B6F3"/>
<stop offset="0.64254" stop-color="#3BA7C2"/>
<stop offset="0.987114" stop-color="#53CFD7"/>
</linearGradient>
</defs>
</svg>
