<svg width="16" height="13" viewBox="0 0 16 13" fill="none" xmlns="http://www.w3.org/2000/svg">
<path d="M15.3125 2.38263C14.7747 2.61011 14.1893 2.77383 13.5864 2.8376C14.2124 2.473 14.6811 1.89699 14.9047 1.21765C14.3173 1.56023 13.6738 1.80046 13.0028 1.92767C12.7223 1.63371 12.3831 1.39953 12.0063 1.23972C11.6295 1.07991 11.2231 0.997897 10.8125 0.998786C9.15142 0.998786 7.81548 2.31887 7.81548 3.93881C7.81548 4.1663 7.8436 4.39378 7.88931 4.61264C5.402 4.48512 3.18364 3.32013 1.70884 1.53647C1.44011 1.98646 1.29929 2.49883 1.30103 3.02027C1.30103 4.04049 1.83013 4.94008 2.63696 5.46915C2.16148 5.45079 1.69714 5.32266 1.28169 5.09518V5.13137C1.28169 6.56002 2.31177 7.74396 3.68462 8.01625C3.42685 8.08189 3.16168 8.11548 2.89536 8.1162C2.70024 8.1162 2.51567 8.09725 2.32935 8.0714C2.70903 9.23638 3.8147 10.0825 5.1313 10.1101C4.10122 10.9011 2.81099 11.3664 1.41001 11.3664C1.15864 11.3664 0.926611 11.3578 0.685791 11.3302C2.0147 12.1661 3.59145 12.6486 5.2895 12.6486C10.802 12.6486 13.8184 8.17135 13.8184 4.28521C13.8184 4.15768 13.8184 4.03015 13.8096 3.90262C14.3932 3.48385 14.9047 2.96512 15.3125 2.38263Z" fill="white"/>
</svg>
